<?xml version="1.0" encoding="UTF-8"?>
<svg width="1200pt" height="1200pt" version="1.1" viewBox="0 0 1200 1200" xmlns="http://www.w3.org/2000/svg">
 <path d="m237.94 778.69c0 50.156 38.859 91.453 88.219 95.156 3.7031 49.312 45 88.219 95.156 88.219h445.22c52.688 0 95.531-42.844 95.531-95.531v-445.31c0-50.062-38.859-91.312-88.219-95.062-3.7031-49.312-45-88.219-95.156-88.219h-445.22c-52.688 0-95.531 42.844-95.531 95.531zm676.13-357.47v445.31c0 26.297-21.375 47.531-47.531 47.531h-445.22c-23.531 0-43.219-17.156-46.781-39.844h404.16c52.688 0 95.531-42.844 95.531-95.531v-404.16c22.547 3.6094 39.844 23.156 39.844 46.688z"/>
</svg>
